<svg width="169" height="73" viewBox="0 0 169 73" fill="none" xmlns="http://www.w3.org/2000/svg">
<path fill-rule="evenodd" clip-rule="evenodd" d="M93.7768 12.0197C93.8967 12.1901 93.9998 12.3737 94.0839 12.5686C99.0438 13.9067 102.695 18.3349 102.695 23.5771C102.695 29.8757 97.4243 35 90.9455 35C87.563 35 84.5104 33.6028 82.3646 31.3715H74.2193C72.4662 31.3715 71.04 29.9849 71.04 28.2806C71.04 27.3018 71.5109 26.4283 72.2436 25.8616C71.5109 25.2949 71.04 24.4215 71.04 23.4426C71.04 22.4638 71.5109 21.5904 72.2436 21.0237C71.5109 20.457 71.04 19.5835 71.04 18.6047C71.04 17.6259 71.5109 16.7525 72.2436 16.1857C71.5109 15.619 71.04 14.7456 71.04 13.7668C71.04 12.0625 72.4662 10.6759 74.2193 10.6759H76.0218C75.6699 10.1785 75.4634 9.57679 75.4634 8.92884C75.4634 8.28089 75.67 7.67917 76.0218 7.18181H70.487C68.734 7.18181 67.3077 5.7952 67.3077 4.0909C67.3077 2.38661 68.734 1 70.487 1H87.4205C89.1735 1 90.5998 2.38661 90.5998 4.0909C90.5998 4.73885 90.3932 5.34057 90.0413 5.83794H95.5762C97.3292 5.83794 98.7555 7.22454 98.7555 8.92884C98.7555 10.6331 97.3292 12.0197 95.5762 12.0197H93.7768ZM97.3732 8.92884C97.3732 7.96555 96.5671 7.18181 95.5762 7.18181H78.6427C77.6518 7.18181 76.8457 7.96555 76.8457 8.92884C76.8457 9.89213 77.6518 10.6759 78.6427 10.6759H91.1527H95.5762C96.5671 10.6759 97.3732 9.89213 97.3732 8.92884ZM68.69 4.0909C68.69 5.05419 69.4961 5.83794 70.487 5.83794H87.4205C88.4114 5.83794 89.2175 5.05419 89.2175 4.0909C89.2175 3.12762 88.4114 2.34387 87.4205 2.34387H70.487C69.4961 2.34387 68.69 3.12762 68.69 4.0909ZM91.1527 12.0197H74.2193C73.2285 12.0197 72.4223 12.8035 72.4223 13.7668C72.4223 14.7301 73.2285 15.5138 74.2193 15.5138H82.6309C84.7592 13.4395 87.7008 12.1542 90.9455 12.1542C91.2794 12.1542 91.6099 12.1686 91.9369 12.1953C91.6977 12.0826 91.4311 12.0197 91.1527 12.0197ZM81.4499 16.8577H74.2193C73.2284 16.8577 72.4223 17.6414 72.4223 18.6047C72.4223 19.5681 73.2284 20.3517 74.2193 20.3517H79.6734C80.0586 19.0814 80.6653 17.9027 81.4499 16.8577ZM79.356 21.6956H74.2193C73.2284 21.6956 72.4223 22.4793 72.4223 23.4426C72.4223 24.406 73.2284 25.1897 74.2193 25.1897H79.3134C79.2364 24.6627 79.1957 24.1245 79.1957 23.5771C79.1957 22.9363 79.2512 22.3079 79.356 21.6956ZM72.4223 28.2806C72.4223 29.2439 73.2284 30.0276 74.2193 30.0276H81.2539C80.5109 28.9758 79.9443 27.7977 79.5956 26.5335H74.2193C73.2284 26.5335 72.4223 27.3172 72.4223 28.2806ZM80.578 23.5771C80.578 29.1347 85.2289 33.6561 90.9455 33.6561C96.662 33.6561 101.313 29.1347 101.313 23.5771C101.313 18.0195 96.662 13.4981 90.9455 13.4981C85.2289 13.4981 80.578 18.0195 80.578 23.5771ZM89.1824 21.2802C89.1824 22.0967 89.9718 22.7609 90.9421 22.7609C92.7945 22.7609 94.3016 24.1228 94.3016 25.7969C94.3016 27.2219 93.2094 28.42 91.742 28.7452V29.0811C91.742 29.5105 91.3838 29.8588 90.9421 29.8588C90.5005 29.8588 90.1423 29.5105 90.1423 29.0811V28.7452C88.6748 28.42 87.5827 27.2219 87.5827 25.7969C87.5827 25.3675 87.9409 25.0193 88.3826 25.0193C88.8243 25.0193 89.1824 25.3675 89.1824 25.7969C89.1824 26.6134 89.9718 27.2776 90.9421 27.2776C91.9125 27.2776 92.7018 26.6134 92.7018 25.7969C92.7018 24.9804 91.9125 24.3161 90.9421 24.3161C89.0897 24.3161 87.5827 22.9542 87.5827 21.2802C87.5827 19.8553 88.6748 18.6571 90.1423 18.3319V17.9275C90.1423 17.4981 90.5005 17.1499 90.9421 17.1499C91.3838 17.1499 91.742 17.4981 91.742 17.9275V18.3319C93.2094 18.6571 94.3016 19.8553 94.3016 21.2802C94.3016 21.7096 93.9434 22.0579 93.5017 22.0579C93.06 22.0579 92.7018 21.7096 92.7018 21.2802C92.7018 20.4637 91.9125 19.7995 90.9421 19.7995C89.9718 19.7995 89.1824 20.4637 89.1824 21.2802Z" fill="#FF872C"/>
<path d="M94.0839 12.5686L93.8543 12.6677L93.9022 12.7785L94.0188 12.8099L94.0839 12.5686ZM93.7768 12.0197V11.7697H93.2951L93.5724 12.1637L93.7768 12.0197ZM82.3646 31.3715L82.5448 31.1982L82.4711 31.1215H82.3646V31.3715ZM72.2436 25.8616L72.3966 26.0594L72.6522 25.8616L72.3966 25.6639L72.2436 25.8616ZM72.2436 21.0237L72.3966 21.2214L72.6522 21.0237L72.3966 20.8259L72.2436 21.0237ZM72.2436 16.1857L72.3966 16.3835L72.6522 16.1857L72.3966 15.988L72.2436 16.1857ZM76.0218 10.6759V10.9259H76.505L76.2259 10.5315L76.0218 10.6759ZM76.0218 7.18181L76.2259 7.32619L76.5049 6.93181H76.0218V7.18181ZM90.0413 5.83794L89.8373 5.69355L89.5582 6.08794H90.0413V5.83794ZM82.6309 15.5138V15.7638H82.7325L82.8053 15.6928L82.6309 15.5138ZM91.9369 12.1953L91.9165 12.4444L92.0434 11.9691L91.9369 12.1953ZM81.4499 16.8577L81.6498 17.0078L81.9502 16.6077H81.4499V16.8577ZM79.6734 20.3517V20.6017H79.8588L79.9126 20.4243L79.6734 20.3517ZM79.356 21.6956L79.6024 21.7378L79.6524 21.4456H79.356V21.6956ZM79.3134 25.1897V25.4397H79.6025L79.5607 25.1536L79.3134 25.1897ZM81.2539 30.0276V30.2776H81.7365L81.4581 29.8834L81.2539 30.0276ZM79.5956 26.5335L79.8366 26.4671L79.7859 26.2835H79.5956V26.5335ZM91.742 28.7452L91.6879 28.5011L91.492 28.5445V28.7452H91.742ZM90.1423 28.7452H90.3923V28.5445L90.1964 28.5011L90.1423 28.7452ZM90.1423 18.3319L90.1964 18.576L90.3923 18.5326V18.3319H90.1423ZM91.742 18.3319H91.492V18.5326L91.6879 18.576L91.742 18.3319ZM94.3134 12.4695C94.2225 12.2589 94.111 12.0602 93.9812 11.8758L93.5724 12.1637C93.6824 12.3199 93.777 12.4886 93.8543 12.6677L94.3134 12.4695ZM102.945 23.5771C102.945 18.2145 99.2107 13.6928 94.149 12.3272L94.0188 12.8099C98.8768 14.1206 102.445 18.4552 102.445 23.5771H102.945ZM90.9455 35.25C97.5556 35.25 102.945 30.0204 102.945 23.5771H102.445C102.445 29.731 97.2929 34.75 90.9455 34.75V35.25ZM82.1844 31.5448C84.376 33.8237 87.4931 35.25 90.9455 35.25V34.75C87.6329 34.75 84.6448 33.3819 82.5448 31.1982L82.1844 31.5448ZM74.2193 31.6215H82.3646V31.1215H74.2193V31.6215ZM70.79 28.2806C70.79 30.1295 72.3349 31.6215 74.2193 31.6215V31.1215C72.5976 31.1215 71.29 29.8402 71.29 28.2806H70.79ZM72.0907 25.6639C71.301 26.2746 70.79 27.2192 70.79 28.2806H71.29C71.29 27.3844 71.7208 26.582 72.3966 26.0594L72.0907 25.6639ZM70.79 23.4426C70.79 24.5041 71.301 25.4486 72.0907 26.0594L72.3966 25.6639C71.7208 25.1412 71.29 24.3388 71.29 23.4426H70.79ZM72.0907 20.8259C71.301 21.4367 70.79 22.3812 70.79 23.4426H71.29C71.29 22.5465 71.7208 21.7441 72.3966 21.2214L72.0907 20.8259ZM70.79 18.6047C70.79 19.6661 71.301 20.6107 72.0907 21.2214L72.3966 20.8259C71.7208 20.3033 71.29 19.5009 71.29 18.6047H70.79ZM72.0907 15.988C71.301 16.5987 70.79 17.5433 70.79 18.6047H71.29C71.29 17.7085 71.7208 16.9062 72.3966 16.3835L72.0907 15.988ZM70.79 13.7668C70.79 14.8282 71.301 15.7727 72.0907 16.3835L72.3966 15.988C71.7208 15.4653 71.29 14.663 71.29 13.7668H70.79ZM74.2193 10.4259C72.3349 10.4259 70.79 11.9178 70.79 13.7668H71.29C71.29 12.2071 72.5976 10.9259 74.2193 10.9259V10.4259ZM76.0218 10.4259H74.2193V10.9259H76.0218V10.4259ZM75.2134 8.92884C75.2134 9.63092 75.4374 10.2827 75.8178 10.8203L76.2259 10.5315C75.9024 10.0743 75.7134 9.52265 75.7134 8.92884H75.2134ZM75.8178 7.03742C75.4375 7.57498 75.2134 8.22674 75.2134 8.92884H75.7134C75.7134 8.33504 75.9025 7.78337 76.2259 7.32619L75.8178 7.03742ZM70.487 7.43181H76.0218V6.93181H70.487V7.43181ZM67.0577 4.0909C67.0577 5.93987 68.6026 7.43181 70.487 7.43181V6.93181C68.8653 6.93181 67.5577 5.65053 67.5577 4.0909H67.0577ZM70.487 0.75C68.6026 0.75 67.0577 2.24193 67.0577 4.0909H67.5577C67.5577 2.53128 68.8653 1.25 70.487 1.25V0.75ZM87.4205 0.75H70.487V1.25H87.4205V0.75ZM90.8498 4.0909C90.8498 2.24193 89.3049 0.75 87.4205 0.75V1.25C89.0421 1.25 90.3498 2.53128 90.3498 4.0909H90.8498ZM90.2454 5.98232C90.6257 5.44476 90.8498 4.793 90.8498 4.0909H90.3498C90.3498 4.6847 90.1607 5.23637 89.8373 5.69355L90.2454 5.98232ZM95.5762 5.58794H90.0413V6.08794H95.5762V5.58794ZM99.0055 8.92884C99.0055 7.07987 97.4606 5.58794 95.5762 5.58794V6.08794C97.1978 6.08794 98.5055 7.36921 98.5055 8.92884H99.0055ZM95.5762 12.2697C97.4606 12.2697 99.0055 10.7778 99.0055 8.92884H98.5055C98.5055 10.4885 97.1978 11.7697 95.5762 11.7697V12.2697ZM93.7768 12.2697H95.5762V11.7697H93.7768V12.2697ZM95.5762 7.43181C96.4357 7.43181 97.1232 8.11022 97.1232 8.92884H97.6232C97.6232 7.82089 96.6985 6.93181 95.5762 6.93181V7.43181ZM78.6427 7.43181H95.5762V6.93181H78.6427V7.43181ZM77.0957 8.92884C77.0957 8.11022 77.7832 7.43181 78.6427 7.43181V6.93181C77.5204 6.93181 76.5957 7.82089 76.5957 8.92884H77.0957ZM78.6427 10.4259C77.7832 10.4259 77.0957 9.74746 77.0957 8.92884H76.5957C76.5957 10.0368 77.5204 10.9259 78.6427 10.9259V10.4259ZM91.1527 10.4259H78.6427V10.9259H91.1527V10.4259ZM95.5762 10.4259H91.1527V10.9259H95.5762V10.4259ZM97.1232 8.92884C97.1232 9.74746 96.4357 10.4259 95.5762 10.4259V10.9259C96.6985 10.9259 97.6232 10.0368 97.6232 8.92884H97.1232ZM70.487 5.58794C69.6275 5.58794 68.94 4.90952 68.94 4.0909H68.44C68.44 5.19886 69.3647 6.08794 70.487 6.08794V5.58794ZM87.4205 5.58794H70.487V6.08794H87.4205V5.58794ZM88.9675 4.0909C88.9675 4.90952 88.28 5.58794 87.4205 5.58794V6.08794C88.5428 6.08794 89.4675 5.19886 89.4675 4.0909H88.9675ZM87.4205 2.59387C88.28 2.59387 88.9675 3.27228 88.9675 4.0909H89.4675C89.4675 2.98295 88.5428 2.09387 87.4205 2.09387V2.59387ZM70.487 2.59387H87.4205V2.09387H70.487V2.59387ZM68.94 4.0909C68.94 3.27228 69.6275 2.59387 70.487 2.59387V2.09387C69.3647 2.09387 68.44 2.98295 68.44 4.0909H68.94ZM74.2193 12.2697H91.1527V11.7697H74.2193V12.2697ZM72.6723 13.7668C72.6723 12.9482 73.3598 12.2697 74.2193 12.2697V11.7697C73.0971 11.7697 72.1723 12.6588 72.1723 13.7668H72.6723ZM74.2193 15.2638C73.3598 15.2638 72.6723 14.5854 72.6723 13.7668H72.1723C72.1723 14.8747 73.0971 15.7638 74.2193 15.7638V15.2638ZM82.6309 15.2638H74.2193V15.7638H82.6309V15.2638ZM90.9455 11.9042C87.6338 11.9042 84.6301 13.2163 82.4564 15.3348L82.8053 15.6928C84.8883 13.6628 87.7678 12.4042 90.9455 12.4042V11.9042ZM91.9572 11.9461C91.6239 11.9189 91.2866 11.9042 90.9455 11.9042V12.4042C91.2722 12.4042 91.596 12.4183 91.9165 12.4444L91.9572 11.9461ZM91.1527 12.2697C91.3933 12.2697 91.6236 12.3241 91.8303 12.4214L92.0434 11.9691C91.7719 11.8412 91.469 11.7697 91.1527 11.7697V12.2697ZM74.2193 17.1077H81.4499V16.6077H74.2193V17.1077ZM72.6723 18.6047C72.6723 17.7861 73.3598 17.1077 74.2193 17.1077V16.6077C73.097 16.6077 72.1723 17.4968 72.1723 18.6047H72.6723ZM74.2193 20.1017C73.3598 20.1017 72.6723 19.4234 72.6723 18.6047H72.1723C72.1723 19.7127 73.097 20.6017 74.2193 20.6017V20.1017ZM79.6734 20.1017H74.2193V20.6017H79.6734V20.1017ZM81.2499 16.7076C80.4483 17.7753 79.8281 18.9802 79.4341 20.2792L79.9126 20.4243C80.2892 19.1827 80.8822 18.0301 81.6498 17.0078L81.2499 16.7076ZM74.2193 21.9456H79.356V21.4456H74.2193V21.9456ZM72.6723 23.4426C72.6723 22.624 73.3598 21.9456 74.2193 21.9456V21.4456C73.097 21.4456 72.1723 22.3346 72.1723 23.4426H72.6723ZM74.2193 24.9397C73.3598 24.9397 72.6723 24.2613 72.6723 23.4426H72.1723C72.1723 24.5507 73.097 25.4397 74.2193 25.4397V24.9397ZM79.3134 24.9397H74.2193V25.4397H79.3134V24.9397ZM78.9457 23.5771C78.9457 24.1369 78.9874 24.6872 79.066 25.2258L79.5607 25.1536C79.4855 24.6382 79.4457 24.112 79.4457 23.5771H78.9457ZM79.1096 21.6534C79.0024 22.2794 78.9457 22.9218 78.9457 23.5771H79.4457C79.4457 22.9507 79.4999 22.3365 79.6024 21.7378L79.1096 21.6534ZM74.2193 29.7776C73.3598 29.7776 72.6723 29.0993 72.6723 28.2806H72.1723C72.1723 29.3886 73.097 30.2776 74.2193 30.2776V29.7776ZM81.2539 29.7776H74.2193V30.2776H81.2539V29.7776ZM79.3546 26.6C79.7112 27.8927 80.2905 29.0971 81.0497 30.1718L81.4581 29.8834C80.7313 28.8545 80.1774 27.7026 79.8366 26.4671L79.3546 26.6ZM74.2193 26.7835H79.5956V26.2835H74.2193V26.7835ZM72.6723 28.2806C72.6723 27.4619 73.3598 26.7835 74.2193 26.7835V26.2835C73.097 26.2835 72.1723 27.1726 72.1723 28.2806H72.6723ZM90.9455 33.4061C85.3602 33.4061 80.828 28.99 80.828 23.5771H80.328C80.328 29.2794 85.0975 33.9061 90.9455 33.9061V33.4061ZM101.063 23.5771C101.063 28.99 96.5307 33.4061 90.9455 33.4061V33.9061C96.7934 33.9061 101.563 29.2794 101.563 23.5771H101.063ZM90.9455 13.7481C96.5307 13.7481 101.063 18.1642 101.063 23.5771H101.563C101.563 17.8748 96.7934 13.2481 90.9455 13.2481V13.7481ZM80.828 23.5771C80.828 18.1642 85.3602 13.7481 90.9455 13.7481V13.2481C85.0975 13.2481 80.328 17.8748 80.328 23.5771H80.828ZM90.9421 22.5109C90.0677 22.5109 89.4324 21.9199 89.4324 21.2802H88.9324C88.9324 22.2734 89.8759 23.0109 90.9421 23.0109V22.5109ZM94.5516 25.7969C94.5516 23.9615 92.9082 22.5109 90.9421 22.5109V23.0109C92.6809 23.0109 94.0516 24.2841 94.0516 25.7969H94.5516ZM91.7961 28.9893C93.3584 28.6431 94.5516 27.358 94.5516 25.7969H94.0516C94.0516 27.0857 93.0605 28.197 91.6879 28.5011L91.7961 28.9893ZM91.992 29.0811V28.7452H91.492V29.0811H91.992ZM90.9421 30.1088C91.5152 30.1088 91.992 29.6552 91.992 29.0811H91.492C91.492 29.3659 91.2524 29.6088 90.9421 29.6088V30.1088ZM89.8923 29.0811C89.8923 29.6552 90.3691 30.1088 90.9421 30.1088V29.6088C90.6318 29.6088 90.3923 29.3659 90.3923 29.0811H89.8923ZM89.8923 28.7452V29.0811H90.3923V28.7452H89.8923ZM87.3327 25.7969C87.3327 27.358 88.5259 28.6431 90.0882 28.9893L90.1964 28.5011C88.8238 28.197 87.8327 27.0857 87.8327 25.7969H87.3327ZM88.3826 24.7693C87.8095 24.7693 87.3327 25.2228 87.3327 25.7969H87.8327C87.8327 25.5121 88.0723 25.2693 88.3826 25.2693V24.7693ZM89.4324 25.7969C89.4324 25.2228 88.9556 24.7693 88.3826 24.7693V25.2693C88.6929 25.2693 88.9324 25.5121 88.9324 25.7969H89.4324ZM90.9421 27.0276C90.0677 27.0276 89.4324 26.4366 89.4324 25.7969H88.9324C88.9324 26.7901 89.8759 27.5276 90.9421 27.5276V27.0276ZM92.4518 25.7969C92.4518 26.4366 91.8166 27.0276 90.9421 27.0276V27.5276C92.0084 27.5276 92.9518 26.7901 92.9518 25.7969H92.4518ZM90.9421 24.5661C91.8166 24.5661 92.4518 25.1571 92.4518 25.7969H92.9518C92.9518 24.8036 92.0084 24.0661 90.9421 24.0661V24.5661ZM87.3327 21.2802C87.3327 23.1155 88.9761 24.5661 90.9421 24.5661V24.0661C89.2034 24.0661 87.8327 22.7929 87.8327 21.2802H87.3327ZM90.0882 18.0878C88.5259 18.4341 87.3327 19.7191 87.3327 21.2802H87.8327C87.8327 19.9915 88.8238 18.8802 90.1964 18.576L90.0882 18.0878ZM89.8923 17.9275V18.3319H90.3923V17.9275H89.8923ZM90.9421 16.8999C90.3691 16.8999 89.8923 17.3534 89.8923 17.9275H90.3923C90.3923 17.6427 90.6318 17.3999 90.9421 17.3999V16.8999ZM91.992 17.9275C91.992 17.3534 91.5152 16.8999 90.9421 16.8999V17.3999C91.2524 17.3999 91.492 17.6427 91.492 17.9275H91.992ZM91.992 18.3319V17.9275H91.492V18.3319H91.992ZM94.5516 21.2802C94.5516 19.7191 93.3584 18.4341 91.7961 18.0878L91.6879 18.576C93.0605 18.8802 94.0516 19.9915 94.0516 21.2802H94.5516ZM93.5017 22.3079C94.0748 22.3079 94.5516 21.8543 94.5516 21.2802H94.0516C94.0516 21.565 93.812 21.8079 93.5017 21.8079V22.3079ZM92.4518 21.2802C92.4518 21.8543 92.9286 22.3079 93.5017 22.3079V21.8079C93.1914 21.8079 92.9518 21.565 92.9518 21.2802H92.4518ZM90.9421 20.0495C91.8166 20.0495 92.4518 20.6405 92.4518 21.2802H92.9518C92.9518 20.287 92.0084 19.5495 90.9421 19.5495V20.0495ZM89.4324 21.2802C89.4324 20.6405 90.0677 20.0495 90.9421 20.0495V19.5495C89.8759 19.5495 88.9324 20.287 88.9324 21.2802H89.4324Z" fill="#FF872C"/>
<path d="M3.8255 59.376C3.8255 58.016 4.0975 56.824 4.6415 55.8C5.2015 54.76 5.9695 53.96 6.9455 53.4C7.9215 52.84 9.0415 52.56 10.3055 52.56C11.9055 52.56 13.2255 52.944 14.2655 53.712C15.3215 54.464 16.0335 55.544 16.4015 56.952H13.4495C13.2095 56.296 12.8255 55.784 12.2975 55.416C11.7695 55.048 11.1055 54.864 10.3055 54.864C9.1855 54.864 8.2895 55.264 7.6175 56.064C6.9615 56.848 6.6335 57.952 6.6335 59.376C6.6335 60.8 6.9615 61.912 7.6175 62.712C8.2895 63.512 9.1855 63.912 10.3055 63.912C11.8895 63.912 12.9375 63.216 13.4495 61.824H16.4015C16.0175 63.168 15.2975 64.24 14.2415 65.04C13.1855 65.824 11.8735 66.216 10.3055 66.216C9.0415 66.216 7.9215 65.936 6.9455 65.376C5.9695 64.8 5.2015 64 4.6415 62.976C4.0975 61.936 3.8255 60.736 3.8255 59.376ZM21.8641 54.696C22.2641 54.024 22.7921 53.504 23.4481 53.136C24.1201 52.752 24.9121 52.56 25.8241 52.56V55.392H25.1281C24.0561 55.392 23.2401 55.664 22.6801 56.208C22.1361 56.752 21.8641 57.696 21.8641 59.04V66H19.1281V52.776H21.8641V54.696ZM40.2431 52.776L32.1311 72.216H29.2991L31.9871 65.784L26.7791 52.776H29.8271L33.5471 62.856L37.4111 52.776H40.2431ZM45.0438 54.72C45.5078 54.112 46.1398 53.6 46.9398 53.184C47.7398 52.768 48.6438 52.56 49.6518 52.56C50.8038 52.56 51.8518 52.848 52.7958 53.424C53.7558 53.984 54.5078 54.776 55.0518 55.8C55.5958 56.824 55.8678 58 55.8678 59.328C55.8678 60.656 55.5958 61.848 55.0518 62.904C54.5078 63.944 53.7558 64.76 52.7958 65.352C51.8518 65.928 50.8038 66.216 49.6518 66.216C48.6438 66.216 47.7478 66.016 46.9638 65.616C46.1798 65.2 45.5398 64.688 45.0438 64.08V72.288H42.3078V52.776H45.0438V54.72ZM53.0838 59.328C53.0838 58.416 52.8918 57.632 52.5078 56.976C52.1398 56.304 51.6438 55.8 51.0198 55.464C50.4118 55.112 49.7558 54.936 49.0518 54.936C48.3638 54.936 47.7078 55.112 47.0838 55.464C46.4758 55.816 45.9798 56.328 45.5958 57C45.2278 57.672 45.0438 58.464 45.0438 59.376C45.0438 60.288 45.2278 61.088 45.5958 61.776C45.9798 62.448 46.4758 62.96 47.0838 63.312C47.7078 63.664 48.3638 63.84 49.0518 63.84C49.7558 63.84 50.4118 63.664 51.0198 63.312C51.6438 62.944 52.1398 62.416 52.5078 61.728C52.8918 61.04 53.0838 60.24 53.0838 59.328ZM61.7654 55.008V62.328C61.7654 62.824 61.8774 63.184 62.1014 63.408C62.3414 63.616 62.7414 63.72 63.3014 63.72H64.9814V66H62.8214C61.5894 66 60.6454 65.712 59.9894 65.136C59.3334 64.56 59.0054 63.624 59.0054 62.328V55.008H57.4454V52.776H59.0054V49.488H61.7654V52.776H64.9814V55.008H61.7654ZM73.2391 66.216C71.9911 66.216 70.8631 65.936 69.8551 65.376C68.8471 64.8 68.0551 64 67.4791 62.976C66.9031 61.936 66.6151 60.736 66.6151 59.376C66.6151 58.032 66.9111 56.84 67.5031 55.8C68.0951 54.76 68.9031 53.96 69.9271 53.4C70.9511 52.84 72.0951 52.56 73.3591 52.56C74.6231 52.56 75.7671 52.84 76.7911 53.4C77.8151 53.96 78.6231 54.76 79.2151 55.8C79.8071 56.84 80.1031 58.032 80.1031 59.376C80.1031 60.72 79.7991 61.912 79.1911 62.952C78.5831 63.992 77.7511 64.8 76.6951 65.376C75.6551 65.936 74.5031 66.216 73.2391 66.216ZM73.2391 63.84C73.9431 63.84 74.5991 63.672 75.2071 63.336C75.8311 63 76.3351 62.496 76.7191 61.824C77.1031 61.152 77.2951 60.336 77.2951 59.376C77.2951 58.416 77.1111 57.608 76.7431 56.952C76.3751 56.28 75.8871 55.776 75.2791 55.44C74.6711 55.104 74.0151 54.936 73.3111 54.936C72.6071 54.936 71.9511 55.104 71.3431 55.44C70.7511 55.776 70.2791 56.28 69.9271 56.952C69.5751 57.608 69.3991 58.416 69.3991 59.376C69.3991 60.8 69.7591 61.904 70.4791 62.688C71.2151 63.456 72.1351 63.84 73.2391 63.84ZM81.8958 59.376C81.8958 58.016 82.1678 56.824 82.7118 55.8C83.2718 54.76 84.0398 53.96 85.0158 53.4C85.9918 52.84 87.1118 52.56 88.3758 52.56C89.9758 52.56 91.2958 52.944 92.3358 53.712C93.3918 54.464 94.1038 55.544 94.4718 56.952H91.5198C91.2798 56.296 90.8958 55.784 90.3678 55.416C89.8398 55.048 89.1758 54.864 88.3758 54.864C87.2558 54.864 86.3598 55.264 85.6878 56.064C85.0318 56.848 84.7038 57.952 84.7038 59.376C84.7038 60.8 85.0318 61.912 85.6878 62.712C86.3598 63.512 87.2558 63.912 88.3758 63.912C89.9598 63.912 91.0078 63.216 91.5198 61.824H94.4718C94.0878 63.168 93.3678 64.24 92.3118 65.04C91.2558 65.824 89.9438 66.216 88.3758 66.216C87.1118 66.216 85.9918 65.936 85.0158 65.376C84.0398 64.8 83.2718 64 82.7118 62.976C82.1678 61.936 81.8958 60.736 81.8958 59.376ZM102.934 66.216C101.686 66.216 100.558 65.936 99.5504 65.376C98.5424 64.8 97.7504 64 97.1744 62.976C96.5984 61.936 96.3104 60.736 96.3104 59.376C96.3104 58.032 96.6064 56.84 97.1984 55.8C97.7904 54.76 98.5984 53.96 99.6224 53.4C100.646 52.84 101.79 52.56 103.054 52.56C104.318 52.56 105.462 52.84 106.486 53.4C107.51 53.96 108.318 54.76 108.91 55.8C109.502 56.84 109.798 58.032 109.798 59.376C109.798 60.72 109.494 61.912 108.886 62.952C108.278 63.992 107.446 64.8 106.39 65.376C105.35 65.936 104.198 66.216 102.934 66.216ZM102.934 63.84C103.638 63.84 104.294 63.672 104.902 63.336C105.526 63 106.03 62.496 106.414 61.824C106.798 61.152 106.99 60.336 106.99 59.376C106.99 58.416 106.806 57.608 106.438 56.952C106.07 56.28 105.582 55.776 104.974 55.44C104.366 55.104 103.71 54.936 103.006 54.936C102.302 54.936 101.646 55.104 101.038 55.44C100.446 55.776 99.9744 56.28 99.6224 56.952C99.2704 57.608 99.0944 58.416 99.0944 59.376C99.0944 60.8 99.4544 61.904 100.174 62.688C100.91 63.456 101.83 63.84 102.934 63.84ZM119.175 52.56C120.215 52.56 121.143 52.776 121.959 53.208C122.791 53.64 123.439 54.28 123.903 55.128C124.367 55.976 124.599 57 124.599 58.2V66H121.887V58.608C121.887 57.424 121.591 56.52 120.999 55.896C120.407 55.256 119.599 54.936 118.575 54.936C117.551 54.936 116.735 55.256 116.127 55.896C115.535 56.52 115.239 57.424 115.239 58.608V66H112.503V52.776H115.239V54.288C115.687 53.744 116.255 53.32 116.943 53.016C117.647 52.712 118.391 52.56 119.175 52.56ZM131.281 55.008V62.328C131.281 62.824 131.393 63.184 131.617 63.408C131.857 63.616 132.257 63.72 132.817 63.72H134.497V66H132.337C131.105 66 130.161 65.712 129.505 65.136C128.849 64.56 128.521 63.624 128.521 62.328V55.008H126.961V52.776H128.521V49.488H131.281V52.776H134.497V55.008H131.281ZM139.755 54.696C140.155 54.024 140.683 53.504 141.339 53.136C142.011 52.752 142.803 52.56 143.715 52.56V55.392H143.019C141.947 55.392 141.131 55.664 140.571 56.208C140.027 56.752 139.755 57.696 139.755 59.04V66H137.019V52.776H139.755V54.696ZM151.966 66.216C150.718 66.216 149.59 65.936 148.582 65.376C147.574 64.8 146.782 64 146.206 62.976C145.63 61.936 145.342 60.736 145.342 59.376C145.342 58.032 145.638 56.84 146.23 55.8C146.822 54.76 147.63 53.96 148.654 53.4C149.678 52.84 150.822 52.56 152.086 52.56C153.35 52.56 154.494 52.84 155.518 53.4C156.542 53.96 157.35 54.76 157.942 55.8C158.534 56.84 158.83 58.032 158.83 59.376C158.83 60.72 158.526 61.912 157.918 62.952C157.31 63.992 156.478 64.8 155.422 65.376C154.382 65.936 153.23 66.216 151.966 66.216ZM151.966 63.84C152.67 63.84 153.326 63.672 153.934 63.336C154.558 63 155.062 62.496 155.446 61.824C155.83 61.152 156.022 60.336 156.022 59.376C156.022 58.416 155.838 57.608 155.47 56.952C155.102 56.28 154.614 55.776 154.006 55.44C153.398 55.104 152.742 54.936 152.038 54.936C151.334 54.936 150.678 55.104 150.07 55.44C149.478 55.776 149.006 56.28 148.654 56.952C148.302 57.608 148.126 58.416 148.126 59.376C148.126 60.8 148.486 61.904 149.206 62.688C149.942 63.456 150.862 63.84 151.966 63.84ZM164.27 48.24V66H161.534V48.24H164.27Z" fill="white"/>
</svg>
